<svg xmlns="http://www.w3.org/2000/svg" viewBox="0 0 434.76 103.73">
  <path fill="currentColor" d="M23.08,59.22A21.35,21.35,0,0,0,22,66a20.47,20.47,0,0,0,1.06,6.48,17.54,17.54,0,0,0,3.12,5.69,16.53,16.53,0,0,0,5,4.06,13.66,13.66,0,0,0,6.59,1.57,17.2,17.2,0,0,0,8.78-2.06,22.63,22.63,0,0,0,5.67-4.48L64.1,90.62a35,35,0,0,1-10.84,7.83,36.08,36.08,0,0,1-15.94,3.27,39.2,39.2,0,0,1-14.67-2.63,32.39,32.39,0,0,1-11.26-7.4,34,34,0,0,1-7.3-11.32A38.35,38.35,0,0,1,1.47,66,35.8,35.8,0,0,1,4.17,52.11,35.37,35.37,0,0,1,11.6,40.79a34.37,34.37,0,0,1,11.34-7.62A36.66,36.66,0,0,1,37.32,30.4a38.14,38.14,0,0,1,15.73,3,33.41,33.41,0,0,1,11.19,8L51.91,54.74a24.07,24.07,0,0,0-5.52-4.56,16.43,16.43,0,0,0-8.64-2,14.19,14.19,0,0,0-6.59,1.5,16.08,16.08,0,0,0-5,3.91A16.73,16.73,0,0,0,23.08,59.22ZM181.91,31.11a27.14,27.14,0,0,0-11.27,2.42,23.18,23.18,0,0,0-8.47,6.58L155.64,33H142.06v67h20V63.63a18.06,18.06,0,0,1,.88-5.64,13.38,13.38,0,0,1,2.59-4.64,12.77,12.77,0,0,1,4.31-3.21,14.08,14.08,0,0,1,6-1.21,9.28,9.28,0,0,1,7.6,3.28c1.87,2.19,2.58,5.14,2.58,8.84V100h21V58.21c0-8.94-2.21-15.69-6.76-20.26S189.66,31.11,181.91,31.11ZM243.06,29c0-3.33.82-5.9,2.53-7.7a9,9,0,0,1,6.83-2.71,16.55,16.55,0,0,1,5.27.86,17,17,0,0,1,4.7,2.42q2.14-3.28,4.35-6.49t4.35-6.49A26.88,26.88,0,0,0,261,3.43a40.34,40.34,0,0,0-11-1.57,31.59,31.59,0,0,0-10.06,1.64,25.49,25.49,0,0,0-8.77,5,24.18,24.18,0,0,0-6,8.49c-1.57,3.42-2.12,7.51-2.12,12.27V33h-11V49h11v51h20V49h13V33h-13V29Zm79.63,24.32a53.08,53.08,0,0,1,2.37,15.48V72H276.94c0.09,4,1.69,6.87,4.78,9.58s7.35,4.16,12.77,4.16,9.65-.78,13-2.35a44.47,44.47,0,0,0,7.28-4.07l8.42,13q-1.14.71-3.42,2.35a31.8,31.8,0,0,1-5.92,3.21,54.29,54.29,0,0,1-8.63,2.78,48.54,48.54,0,0,1-11.41,1.21,42.57,42.57,0,0,1-15.41-2.64,33.47,33.47,0,0,1-11.63-7.35,31,31,0,0,1-7.28-11.34A41.22,41.22,0,0,1,257,65.92a39.22,39.22,0,0,1,2.35-13.48,33.65,33.65,0,0,1,6.78-11.34,32.94,32.94,0,0,1,10.84-7.77,34.72,34.72,0,0,1,14.55-2.92,33.5,33.5,0,0,1,14.27,2.85,29.35,29.35,0,0,1,10.34,7.92A34.69,34.69,0,0,1,322.68,53.29ZM305.19,59a13.79,13.79,0,0,0-.86-4.32,12.64,12.64,0,0,0-2.57-4,13.71,13.71,0,0,0-4.28-3.07,14.26,14.26,0,0,0-6.13-1.21,15.24,15.24,0,0,0-6.28,1.21,14.17,14.17,0,0,0-4.49,3.06,13.16,13.16,0,0,0-2.71,4,12.82,12.82,0,0,0-.93,4.32h28.25Zm-172-6.89a38,38,0,0,1,0,27.76,34.36,34.36,0,0,1-18.51,19,35.78,35.78,0,0,1-14.46,2.85,36.29,36.29,0,0,1-14.54-2.85,34.48,34.48,0,0,1-11.27-7.69,35,35,0,0,1-7.3-11.32,38,38,0,0,1,0-27.76,35,35,0,0,1,7.3-11.32,33.6,33.6,0,0,1,11.27-7.62,37.09,37.09,0,0,1,14.54-2.78,36.57,36.57,0,0,1,14.46,2.78,33.79,33.79,0,0,1,11.2,7.62A35,35,0,0,1,133.23,52.11ZM116.14,66a22.23,22.23,0,0,0-1-6.62,16.54,16.54,0,0,0-3-5.7,15.37,15.37,0,0,0-5-4,15,15,0,0,0-6.81-1.5,15.41,15.41,0,0,0-6.88,1.5,14.48,14.48,0,0,0-5,4,18.31,18.31,0,0,0-3,5.7,21.13,21.13,0,0,0,0,13.24,19.25,19.25,0,0,0,3,5.77,14.14,14.14,0,0,0,5,4.06,15.41,15.41,0,0,0,6.88,1.49,14.67,14.67,0,0,0,11.84-5.55,17.32,17.32,0,0,0,3-5.77A22.23,22.23,0,0,0,116.14,66Zm296.91,34h20V33h-20v67Zm10-77.59a10.27,10.27,0,1,0-10.27-10.27A10.27,10.27,0,0,0,423,22.41ZM395.06,12h-20V33h-19V12h-20V33h-11V49h11v51h20V49h19v51h20V49h11V33h-11V12Z"/>
</svg>