<svg xmlns="http://www.w3.org/2000/svg" viewBox="0 0 100 100">
    <path d="M14.36,63.36h8.91a8.91,8.91,0,0,1,8.91,8.91v8.91h4.45V72.27a8.91,8.91,0,0,1,8.91-8.91h8.91a8.91,8.91,0,0,1,8.91,8.91v8.91h4.45V72.27a8.91,8.91,0,0,1,8.91-8.91h8.91a8.91,8.91,0,0,1,8.91,8.91v8.91H99V94.55H1V81.18H5.45V72.27a8.91,8.91,0,0,1,8.91-8.91M45.55,27.73L63.36,41.09,45.55,54.45V27.73M14.36,5.45H85.64a8.91,8.91,0,0,1,8.91,8.91v42.5a17.33,17.33,0,0,0-8.91-2.41V14.36H14.36V54.45a17.33,17.33,0,0,0-8.91,2.41V14.36A8.91,8.91,0,0,1,14.36,5.45Z" fill="currentColor"/>
</svg>