<svg xmlns="http://www.w3.org/2000/svg" viewBox="0 0 100 100">
  <path d="M99,10.8V89.2A9.8,9.8,0,0,1,89.2,99H64c-1.71-.39-4-3.72-4-4.9V80.67c0-4.56-.49-7.55-2.26-9.07,10.93-1.22,23.57-5.34,23.57-24.06a19,19,0,0,0-5.07-13.28,17.55,17.55,0,0,0-.5-12.94s-4.12-1.32-13.48,5a47.23,47.23,0,0,0-24.51,0c-9.36-6.32-13.48-5-13.48-5a17.54,17.54,0,0,0-.5,12.94,19,19,0,0,0-5.06,13.28c0,18.67,11.4,22.88,22.28,24.11a10.59,10.59,0,0,0-3.13,6.57c-2.79,1.18-10.07,3.38-14.34-4.07,0,0-2.75-4.7-7.65-5,0,0-5.11-.1-0.8,2.94,0,0,2.57,1.52,4.82,7.2,0,0,5.09,9.51,15.09,6.57V94.1c0,1.18,2.75,4.51,1,4.9H10.8A9.8,9.8,0,0,1,1,89.2V10.8A9.8,9.8,0,0,1,10.8,1H89.2A9.8,9.8,0,0,1,99,10.8Z" fill="currentColor"/>
</svg>