<svg xmlns="http://www.w3.org/2000/svg" viewBox="0 0 100 100">
  <path d="M57.47,35a5.16,5.16,0,0,0,0,7.53,15.81,15.81,0,0,1,0,22.48L38.76,83.72A15.89,15.89,0,0,1,16.28,61.24l2.49-2.49a37.13,37.13,0,0,1-2.12-12.88l-7.9,7.9A26.5,26.5,0,1,0,46.24,91.25L65,72.48A26.53,26.53,0,0,0,65,35,5.34,5.34,0,0,0,57.47,35Z" fill="currentColor"/><path d="M91.25,8.75a26.53,26.53,0,0,0-37.48,0L35,27.52A26.53,26.53,0,0,0,35,65a5.34,5.34,0,0,0,7.53,0,5.16,5.16,0,0,0,0-7.53,15.81,15.81,0,0,1,0-22.48L61.24,16.28A15.89,15.89,0,1,1,83.72,38.76l-2.49,2.54a36.63,36.63,0,0,1,2.12,12.83l7.9-7.9A26.53,26.53,0,0,0,91.25,8.75Z" fill="currentColor"/>
</svg>