<svg id="Layer_1" data-name="Layer 1" xmlns="http://www.w3.org/2000/svg" viewBox="0 0 100 100"><title>icons</title><path d="M28,44.19V55.11A6.85,6.85,0,0,1,21.32,62H7.67A6.84,6.84,0,0,1,1,55.11V44.19C1,40.91,3.57,39,7.67,39H21.32C25.42,39,28,40.91,28,44.19ZM21.32,7H7.67C3.57,7,1,8.14,1,11.41V22.34C1,25.62,3.57,28,7.67,28H21.32c4.1,0,6.68-2.38,6.68-5.66V11.41C28,8.14,25.42,7,21.32,7Zm0,65H7.67C3.57,72,1,73.69,1,77V87.89C1,91.17,3.57,94,7.67,94H21.32c4.1,0,6.68-2.83,6.68-6.11V77C28,73.69,25.42,72,21.32,72ZM39,56H99V44H39V56Zm0,32H99V78H39V88Zm0-76V23H99V12H39Z" fill="currentColor"/></svg>