<svg xmlns="http://www.w3.org/2000/svg" viewBox="0 0 100 100">
<path d="M89,30c0,0.89,0,1.73,0,2.62,0,26.56-20.28,57.2-57.2,57.2A56.89,56.89,0,0,1,1,80.78a40.88,40.88,0,0,0,4.78.28,39.92,39.92,0,0,0,25-8.62A20,20,0,0,1,12,58.48a19.81,19.81,0,0,0,9.07-.33A20.08,20.08,0,0,1,5,38.43V38.29a20.69,20.69,0,0,0,9.1,2.34A20,20,0,0,1,7.84,13.88a57.12,57.12,0,0,0,41.41,21,20.89,20.89,0,0,1-.52-4.59,20.07,20.07,0,0,1,20-20.1,19.79,19.79,0,0,1,14.8,6.37,40.48,40.48,0,0,0,12.74-4.92,20.14,20.14,0,0,1-8.81,11.15A40.14,40.14,0,0,0,99,19.55,40.15,40.15,0,0,1,89,30Z" fill="currentColor"/>
</svg>